ffmpeg started on 2025-05-02 at 14:19:28
Report written to "D:\Convert\FFMetrics\reports\psnr_report-6.txt"
Log level: 32
Command line:
ffmpeg -hide_banner -nostdin -i "G:\\\xc0\xed\xe8\xec\xe5\\\xce\xed\xe3\xee\xe8\xed\xe3\xe8\\!_35_\xcb\xe5\xf2\xee_2024\\JamClub\\\xcf\xee\xf7\xe5\xec\xf3 \xe2\xf1\xe5 \xe7\xe0\xe1\xfb\xeb\xe8 \xec\xee\xe9 \xec\xe8\xf0\\JamClub_Naze_Boku_no_Sekai_o_Dare_mo_Oboeteinai_no_ka_07_1080p_HEVC.mkv" -i "G:\\\xc0\xed\xe8\xec\xe5\\\xce\xed\xe3\xee\xe8\xed\xe3\xe8\\!_35_\xcb\xe5\xf2\xee_2024\\JamClub\\\xcf\xee\xf7\xe5\xec\xf3 \xe2\xf1\xe5 \xe7\xe0\xe1\xfb\xeb\xe8 \xec\xee\xe9 \xec\xe8\xf0\\JamClub_Naze_Boku_no_Sekai_o_Dare_mo_Oboeteinai_no_ka_07_1080p.mp4" -lavfi "[0:v]settb=AVTB,setpts=PTS-STARTPTS,format=pix_fmts=yuv420p10,fps=24000/1001,scale=1920:1080:flags=bicubic[main];[1:v]settb=AVTB,setpts=PTS-STARTPTS,format=pix_fmts=yuv420p,fps=24000/1001,scale=1920:1080:flags=bicubic[ref];[main][ref]psnr=eof_action=endall:stats_file='D\\:/Convert/FFMetrics/logs/psnr_logfile-6.txt'" -f null -
Input #0, matroska,webm, from 'G:\Аниме\Онгоинги\!_35_Лето_2024\JamClub\Почему все забыли мой мир\JamClub_Naze_Boku_no_Sekai_o_Dare_mo_Oboeteinai_no_ka_07_1080p_HEVC.mkv':
  Metadata:
    COMPATIBLE_BRANDS: isomiso2avc1mp41
    MAJOR_BRAND     : isom
    MINOR_VERSION   : 512
    ENCODER         : Lavf61.7.100
  Duration: 00:24:02.37, start: -0.001000, bitrate: 1767 kb/s
  Stream #0:0: Video: hevc (Main 10), yuv420p10le(tv, bt709, progressive), 1920x1080 [SAR 1:1 DAR 16:9], 23.98 fps, 23.98 tbr, 1k tbn (default)
      Metadata:
        HANDLER_NAME    : VideoHandler
        VENDOR_ID       : [0][0][0][0]
        ENCODER         : Lavc61.19.100 libx265
        BPS             : 1569720
        DURATION        : 00:24:02.232708333
        NUMBER_OF_FRAMES: 34579
        NUMBER_OF_BYTES : 282987580
        _STATISTICS_WRITING_APP: mkvpropedit v66.0.0 ('Josie') 64-bit
        _STATISTICS_WRITING_DATE_UTC: 2025-04-30 12:15:12
        _STATISTICS_TAGS: BPS DURATION NUMBER_OF_FRAMES NUMBER_OF_BYTES
  Stream #0:1(eng): Audio: aac (LC), 48000 Hz, stereo, fltp (default)
      Metadata:
        HANDLER_NAME    : SoundHandler
        VENDOR_ID       : [0][0][0][0]
        ENCODER         : Lavc61.19.100 aac
        BPS             : 193828
        DURATION        : 00:24:02.328000000
        NUMBER_OF_FRAMES: 67610
        NUMBER_OF_BYTES : 34945510
        _STATISTICS_WRITING_APP: mkvpropedit v66.0.0 ('Josie') 64-bit
        _STATISTICS_WRITING_DATE_UTC: 2025-04-30 12:15:12
        _STATISTICS_TAGS: BPS DURATION NUMBER_OF_FRAMES NUMBER_OF_BYTES
Input #1, mov,mp4,m4a,3gp,3g2,mj2, from 'G:\Аниме\Онгоинги\!_35_Лето_2024\JamClub\Почему все забыли мой мир\JamClub_Naze_Boku_no_Sekai_o_Dare_mo_Oboeteinai_no_ka_07_1080p.mp4':
  Metadata:
    major_brand     : isom
    minor_version   : 512
    compatible_brands: isomiso2avc1mp41
    encoder         : Lavf60.16.100
  Duration: 00:24:02.35, start: 0.000000, bitrate: 5130 kb/s
  Stream #1:0[0x1](und): Video: h264 (High) (avc1 / 0x31637661), yuv420p(progressive), 1920x1080 [SAR 1:1 DAR 16:9], 4932 kb/s, 23.98 fps, 23.98 tbr, 90k tbn (default)
      Metadata:
        handler_name    : VideoHandler
        vendor_id       : [0][0][0][0]
  Stream #1:1[0x2](eng): Audio: aac (LC) (mp4a / 0x6134706D), 48000 Hz, stereo, fltp, 191 kb/s (default)
      Metadata:
        handler_name    : SoundHandler
        vendor_id       : [0][0][0][0]
Stream mapping:
  Stream #0:0 (hevc) -> settb:default
  Stream #1:0 (h264) -> settb:default
  psnr:default -> Stream #0:0 (wrapped_avframe)
  Stream #0:1 -> #0:1 (aac (native) -> pcm_s16le (native))
Output #0, null, to 'pipe:':
  Metadata:
    COMPATIBLE_BRANDS: isomiso2avc1mp41
    MAJOR_BRAND     : isom
    MINOR_VERSION   : 512
    encoder         : Lavf61.7.100
  Stream #0:0: Video: wrapped_avframe, yuv420p10le(tv, bt709, progressive), 1920x1080 [SAR 1:1 DAR 16:9], q=2-31, 200 kb/s, 23.98 fps, 23.98 tbn
      Metadata:
        encoder         : Lavc61.19.100 wrapped_avframe
  Stream #0:1(eng): Audio: pcm_s16le, 48000 Hz, stereo, s16, 1536 kb/s (default)
      Metadata:
        HANDLER_NAME    : SoundHandler
        VENDOR_ID       : [0][0][0][0]
        _STATISTICS_TAGS: BPS DURATION NUMBER_OF_FRAMES NUMBER_OF_BYTES
        BPS             : 193828
        DURATION        : 00:24:02.328000000
        NUMBER_OF_FRAMES: 67610
        NUMBER_OF_BYTES : 34945510
        _STATISTICS_WRITING_APP: mkvpropedit v66.0.0 ('Josie') 64-bit
        _STATISTICS_WRITING_DATE_UTC: 2025-04-30 12:15:12
        encoder         : Lavc61.19.100 pcm_s16le
frame=  116 fps=0.0 q=-0.0 size=N/A time=00:00:04.83 bitrate=N/A speed=9.19x    frame=  276 fps=268 q=-0.0 size=N/A time=00:00:11.51 bitrate=N/A speed=11.2x    frame=  482 fps=310 q=-0.0 size=N/A time=00:00:20.10 bitrate=N/A speed=12.9x    frame=  714 fps=344 q=-0.0 size=N/A time=00:00:29.77 bitrate=N/A speed=14.4x    frame=  929 fps=359 q=-0.0 size=N/A time=00:00:38.74 bitrate=N/A speed=  15x    frame= 1177 fps=379 q=-0.0 size=N/A time=00:00:49.09 bitrate=N/A speed=15.8x    frame= 1421 fps=393 q=-0.0 size=N/A time=00:00:59.26 bitrate=N/A speed=16.4x    frame= 1609 fps=389 q=-0.0 size=N/A time=00:01:07.10 bitrate=N/A speed=16.2x    frame= 1860 fps=400 q=-0.0 size=N/A time=00:01:17.57 bitrate=N/A speed=16.7x    frame= 2066 fps=400 q=-0.0 size=N/A time=00:01:26.16 bitrate=N/A speed=16.7x    frame= 2285 fps=403 q=-0.0 size=N/A time=00:01:35.30 bitrate=N/A speed=16.8x    frame= 2518 fps=406 q=-0.0 size=N/A time=00:01:45.02 bitrate=N/A speed=16.9x    frame= 2759 fps=411 q=-0.0 size=N/A time=00:01:55.07 bitrate=N/A speed=17.2x    frame= 3033 fps=420 q=-0.0 size=N/A time=00:02:06.50 bitrate=N/A speed=17.5x    frame= 3275 fps=424 q=-0.0 size=N/A time=00:02:16.59 bitrate=N/A speed=17.7x    frame= 3517 fps=426 q=-0.0 size=N/A time=00:02:26.68 bitrate=N/A speed=17.8x    frame= 3775 fps=430 q=-0.0 size=N/A time=00:02:37.44 bitrate=N/A speed=17.9x    frame= 3991 fps=429 q=-0.0 size=N/A time=00:02:46.45 bitrate=N/A speed=17.9x    frame= 4195 fps=427 q=-0.0 size=N/A time=00:02:54.96 bitrate=N/A speed=17.8x    frame= 4362 fps=422 q=-0.0 size=N/A time=00:03:01.93 bitrate=N/A speed=17.6x    frame= 4537 fps=418 q=-0.0 size=N/A time=00:03:09.23 bitrate=N/A speed=17.5x    frame= 4753 fps=418 q=-0.0 size=N/A time=00:03:18.23 bitrate=N/A speed=17.4x    frame= 4935 fps=416 q=-0.0 size=N/A time=00:03:25.83 bitrate=N/A speed=17.3x    frame= 5130 fps=414 q=-0.0 size=N/A time=00:03:33.96 bitrate=N/A speed=17.3x    frame= 5328 fps=413 q=-0.0 size=N/A time=00:03:42.22 bitrate=N/A speed=17.2x    frame= 5492 fps=409 q=-0.0 size=N/A time=00:03:49.06 bitrate=N/A speed=17.1x    frame= 5657 fps=406 q=-0.0 size=N/A time=00:03:55.94 bitrate=N/A speed=16.9x    frame= 5827 fps=403 q=-0.0 size=N/A time=00:04:03.03 bitrate=N/A speed=16.8x    frame= 6012 fps=401 q=-0.0 size=N/A time=00:04:10.75 bitrate=N/A speed=16.7x    frame= 6215 fps=401 q=-0.0 size=N/A time=00:04:19.21 bitrate=N/A speed=16.7x    frame= 6408 fps=400 q=-0.0 size=N/A time=00:04:27.26 bitrate=N/A speed=16.7x    frame= 6614 fps=400 q=-0.0 size=N/A time=00:04:35.85 bitrate=N/A speed=16.7x    frame= 6831 fps=401 q=-0.0 size=N/A time=00:04:44.90 bitrate=N/A speed=16.7x    frame= 7099 fps=404 q=-0.0 size=N/A time=00:04:56.08 bitrate=N/A speed=16.9x    frame= 7358 fps=407 q=-0.0 size=N/A time=00:05:06.88 bitrate=N/A speed=  17x    frame= 7602 fps=409 q=-0.0 size=N/A time=00:05:17.06 bitrate=N/A speed=17.1x    frame= 7842 fps=411 q=-0.0 size=N/A time=00:05:27.07 bitrate=N/A speed=17.1x    frame= 8048 fps=410 q=-0.0 size=N/A time=00:05:35.66 bitrate=N/A speed=17.1x    frame= 8296 fps=412 q=-0.0 size=N/A time=00:05:46.01 bitrate=N/A speed=17.2x    frame= 8555 fps=414 q=-0.0 size=N/A time=00:05:56.81 bitrate=N/A speed=17.3x    frame= 8741 fps=413 q=-0.0 size=N/A time=00:06:04.57 bitrate=N/A speed=17.2x    frame= 8955 fps=413 q=-0.0 size=N/A time=00:06:13.49 bitrate=N/A speed=17.2x    frame= 9190 fps=414 q=-0.0 size=N/A time=00:06:23.29 bitrate=N/A speed=17.3x    frame= 9440 fps=415 q=-0.0 size=N/A time=00:06:33.72 bitrate=N/A speed=17.3x    frame= 9644 fps=415 q=-0.0 size=N/A time=00:06:42.23 bitrate=N/A speed=17.3x    frame= 9905 fps=417 q=-0.0 size=N/A time=00:06:53.12 bitrate=N/A speed=17.4x    frame=10069 fps=415 q=-0.0 size=N/A time=00:06:59.96 bitrate=N/A speed=17.3x    frame=10307 fps=416 q=-0.0 size=N/A time=00:07:09.88 bitrate=N/A speed=17.3x    frame=10532 fps=416 q=-0.0 size=N/A time=00:07:19.27 bitrate=N/A speed=17.4x    frame=10781 fps=418 q=-0.0 size=N/A time=00:07:29.65 bitrate=N/A speed=17.4x    frame=11036 fps=419 q=-0.0 size=N/A time=00:07:40.29 bitrate=N/A speed=17.5x    frame=11278 fps=420 q=-0.0 size=N/A time=00:07:50.38 bitrate=N/A speed=17.5x    frame=11544 fps=422 q=-0.0 size=N/A time=00:08:01.48 bitrate=N/A speed=17.6x    frame=11827 fps=424 q=-0.0 size=N/A time=00:08:13.28 bitrate=N/A speed=17.7x    frame=12065 fps=425 q=-0.0 size=N/A time=00:08:23.21 bitrate=N/A speed=17.7x    frame=12340 fps=427 q=-0.0 size=N/A time=00:08:34.68 bitrate=N/A speed=17.8x    frame=12580 fps=427 q=-0.0 size=N/A time=00:08:44.69 bitrate=N/A speed=17.8x    frame=12811 fps=428 q=-0.0 size=N/A time=00:08:54.32 bitrate=N/A speed=17.8x    frame=13053 fps=428 q=-0.0 size=N/A time=00:09:04.41 bitrate=N/A speed=17.9x    frame=13325 fps=430 q=-0.0 size=N/A time=00:09:15.76 bitrate=N/A speed=17.9x    frame=13569 fps=431 q=-0.0 size=N/A time=00:09:25.94 bitrate=N/A speed=  18x    frame=13815 fps=432 q=-0.0 size=N/A time=00:09:36.20 bitrate=N/A speed=  18x    frame=14084 fps=433 q=-0.0 size=N/A time=00:09:47.42 bitrate=N/A speed=18.1x    frame=14333 fps=434 q=-0.0 size=N/A time=00:09:57.80 bitrate=N/A speed=18.1x    frame=14558 fps=434 q=-0.0 size=N/A time=00:10:07.18 bitrate=N/A speed=18.1x    frame=14811 fps=435 q=-0.0 size=N/A time=00:10:17.74 bitrate=N/A speed=18.1x    frame=15066 fps=436 q=-0.0 size=N/A time=00:10:28.37 bitrate=N/A speed=18.2x    frame=15285 fps=435 q=-0.0 size=N/A time=00:10:37.51 bitrate=N/A speed=18.2x    frame=15500 fps=435 q=-0.0 size=N/A time=00:10:46.47 bitrate=N/A speed=18.1x    frame=15728 fps=435 q=-0.0 size=N/A time=00:10:55.98 bitrate=N/A speed=18.2x    frame=15927 fps=435 q=-0.0 size=N/A time=00:11:04.28 bitrate=N/A speed=18.1x    frame=16127 fps=434 q=-0.0 size=N/A time=00:11:12.63 bitrate=N/A speed=18.1x    frame=16335 fps=434 q=-0.0 size=N/A time=00:11:21.30 bitrate=N/A speed=18.1x    frame=16580 fps=434 q=-0.0 size=N/A time=00:11:31.52 bitrate=N/A speed=18.1x    frame=16844 fps=435 q=-0.0 size=N/A time=00:11:42.53 bitrate=N/A speed=18.1x    frame=17101 fps=436 q=-0.0 size=N/A time=00:11:53.25 bitrate=N/A speed=18.2x    frame=17356 fps=437 q=-0.0 size=N/A time=00:12:03.88 bitrate=N/A speed=18.2x    frame=17543 fps=436 q=-0.0 size=N/A time=00:12:11.68 bitrate=N/A speed=18.2x    frame=17716 fps=434 q=-0.0 size=N/A time=00:12:18.90 bitrate=N/A speed=18.1x    frame=17899 fps=434 q=-0.0 size=N/A time=00:12:26.53 bitrate=N/A speed=18.1x    frame=18108 fps=433 q=-0.0 size=N/A time=00:12:35.25 bitrate=N/A speed=18.1x    frame=18298 fps=432 q=-0.0 size=N/A time=00:12:43.17 bitrate=N/A speed=  18x    frame=18539 fps=433 q=-0.0 size=N/A time=00:12:53.23 bitrate=N/A speed=  18x    frame=18760 fps=433 q=-0.0 size=N/A time=00:13:02.44 bitrate=N/A speed=  18x    frame=19014 fps=434 q=-0.0 size=N/A time=00:13:13.04 bitrate=N/A speed=18.1x    frame=19266 fps=434 q=-0.0 size=N/A time=00:13:23.55 bitrate=N/A speed=18.1x    frame=19522 fps=435 q=-0.0 size=N/A time=00:13:34.23 bitrate=N/A speed=18.1x    frame=19794 fps=436 q=-0.0 size=N/A time=00:13:45.57 bitrate=N/A speed=18.2x    frame=20026 fps=436 q=-0.0 size=N/A time=00:13:55.25 bitrate=N/A speed=18.2x    frame=20318 fps=437 q=-0.0 size=N/A time=00:14:07.42 bitrate=N/A speed=18.2x    frame=20585 fps=438 q=-0.0 size=N/A time=00:14:18.56 bitrate=N/A speed=18.3x    frame=20818 fps=438 q=-0.0 size=N/A time=00:14:28.28 bitrate=N/A speed=18.3x    frame=21051 fps=439 q=-0.0 size=N/A time=00:14:38.00 bitrate=N/A speed=18.3x    frame=21259 fps=438 q=-0.0 size=N/A time=00:14:46.67 bitrate=N/A speed=18.3x    frame=21477 fps=438 q=-0.0 size=N/A time=00:14:55.76 bitrate=N/A speed=18.3x    frame=21688 fps=438 q=-0.0 size=N/A time=00:15:04.57 bitrate=N/A speed=18.3x    frame=21928 fps=438 q=-0.0 size=N/A time=00:15:14.58 bitrate=N/A speed=18.3x    frame=22161 fps=438 q=-0.0 size=N/A time=00:15:24.29 bitrate=N/A speed=18.3x    frame=22406 fps=439 q=-0.0 size=N/A time=00:15:34.51 bitrate=N/A speed=18.3x    frame=22654 fps=439 q=-0.0 size=N/A time=00:15:44.86 bitrate=N/A speed=18.3x    frame=22905 fps=439 q=-0.0 size=N/A time=00:15:55.32 bitrate=N/A speed=18.3x    frame=23154 fps=440 q=-0.0 size=N/A time=00:16:05.71 bitrate=N/A speed=18.3x    frame=23421 fps=441 q=-0.0 size=N/A time=00:16:16.85 bitrate=N/A speed=18.4x    frame=23623 fps=440 q=-0.0 size=N/A time=00:16:25.27 bitrate=N/A speed=18.4x    frame=23793 fps=439 q=-0.0 size=N/A time=00:16:32.36 bitrate=N/A speed=18.3x    frame=23993 fps=439 q=-0.0 size=N/A time=00:16:40.70 bitrate=N/A speed=18.3x    frame=24175 fps=438 q=-0.0 size=N/A time=00:16:48.29 bitrate=N/A speed=18.3x    frame=24368 fps=437 q=-0.0 size=N/A time=00:16:56.34 bitrate=N/A speed=18.2x    frame=24587 fps=437 q=-0.0 size=N/A time=00:17:05.48 bitrate=N/A speed=18.2x    frame=24819 fps=437 q=-0.0 size=N/A time=00:17:15.15 bitrate=N/A speed=18.2x    frame=25072 fps=438 q=-0.0 size=N/A time=00:17:25.71 bitrate=N/A speed=18.3x    frame=25330 fps=438 q=-0.0 size=N/A time=00:17:36.47 bitrate=N/A speed=18.3x    frame=25534 fps=438 q=-0.0 size=N/A time=00:17:44.98 bitrate=N/A speed=18.3x    frame=25708 fps=437 q=-0.0 size=N/A time=00:17:52.23 bitrate=N/A speed=18.2x    frame=25873 fps=436 q=-0.0 size=N/A time=00:17:59.11 bitrate=N/A speed=18.2x    frame=26105 fps=436 q=-0.0 size=N/A time=00:18:08.79 bitrate=N/A speed=18.2x    frame=26349 fps=436 q=-0.0 size=N/A time=00:18:18.97 bitrate=N/A speed=18.2x    frame=26599 fps=437 q=-0.0 size=N/A time=00:18:29.39 bitrate=N/A speed=18.2x    frame=26876 fps=438 q=-0.0 size=N/A time=00:18:40.95 bitrate=N/A speed=18.3x    frame=27089 fps=438 q=-0.0 size=N/A time=00:18:49.83 bitrate=N/A speed=18.2x    frame=27268 fps=437 q=-0.0 size=N/A time=00:18:57.30 bitrate=N/A speed=18.2x    frame=27424 fps=436 q=-0.0 size=N/A time=00:19:03.80 bitrate=N/A speed=18.2x    frame=27618 fps=435 q=-0.0 size=N/A time=00:19:11.90 bitrate=N/A speed=18.2x    frame=27794 fps=434 q=-0.0 size=N/A time=00:19:19.24 bitrate=N/A speed=18.1x    frame=27996 fps=434 q=-0.0 size=N/A time=00:19:27.66 bitrate=N/A speed=18.1x    frame=28241 fps=434 q=-0.0 size=N/A time=00:19:37.88 bitrate=N/A speed=18.1x    frame=28456 fps=434 q=-0.0 size=N/A time=00:19:46.85 bitrate=N/A speed=18.1x    frame=28693 fps=434 q=-0.0 size=N/A time=00:19:56.73 bitrate=N/A speed=18.1x    frame=28924 fps=435 q=-0.0 size=N/A time=00:20:06.37 bitrate=N/A speed=18.1x    frame=29176 fps=435 q=-0.0 size=N/A time=00:20:16.88 bitrate=N/A speed=18.1x    frame=29399 fps=435 q=-0.0 size=N/A time=00:20:26.18 bitrate=N/A speed=18.1x    frame=29617 fps=435 q=-0.0 size=N/A time=00:20:35.27 bitrate=N/A speed=18.1x    frame=29853 fps=435 q=-0.0 size=N/A time=00:20:45.11 bitrate=N/A speed=18.1x    frame=30080 fps=435 q=-0.0 size=N/A time=00:20:54.58 bitrate=N/A speed=18.1x    frame=30289 fps=435 q=-0.0 size=N/A time=00:21:03.30 bitrate=N/A speed=18.1x    frame=30479 fps=434 q=-0.0 size=N/A time=00:21:11.22 bitrate=N/A speed=18.1x    frame=30708 fps=434 q=-0.0 size=N/A time=00:21:20.77 bitrate=N/A speed=18.1x    frame=30951 fps=435 q=-0.0 size=N/A time=00:21:30.91 bitrate=N/A speed=18.1x    frame=31211 fps=435 q=-0.0 size=N/A time=00:21:41.75 bitrate=N/A speed=18.2x    frame=31490 fps=436 q=-0.0 size=N/A time=00:21:53.39 bitrate=N/A speed=18.2x    frame=31738 fps=436 q=-0.0 size=N/A time=00:22:03.73 bitrate=N/A speed=18.2x    frame=31984 fps=437 q=-0.0 size=N/A time=00:22:13.99 bitrate=N/A speed=18.2x    frame=32181 fps=436 q=-0.0 size=N/A time=00:22:22.21 bitrate=N/A speed=18.2x    frame=32446 fps=437 q=-0.0 size=N/A time=00:22:33.26 bitrate=N/A speed=18.2x    frame=32694 fps=437 q=-0.0 size=N/A time=00:22:43.61 bitrate=N/A speed=18.2x    frame=32884 fps=437 q=-0.0 size=N/A time=00:22:51.53 bitrate=N/A speed=18.2x    frame=33027 fps=435 q=-0.0 size=N/A time=00:22:57.50 bitrate=N/A speed=18.2x    frame=33191 fps=435 q=-0.0 size=N/A time=00:23:04.34 bitrate=N/A speed=18.1x    frame=33364 fps=434 q=-0.0 size=N/A time=00:23:11.55 bitrate=N/A speed=18.1x    frame=33532 fps=433 q=-0.0 size=N/A time=00:23:18.56 bitrate=N/A speed=18.1x    frame=33689 fps=432 q=-0.0 size=N/A time=00:23:25.11 bitrate=N/A speed=  18x    frame=33866 fps=432 q=-0.0 size=N/A time=00:23:32.49 bitrate=N/A speed=  18x    frame=34043 fps=431 q=-0.0 size=N/A time=00:23:39.87 bitrate=N/A speed=  18x    frame=34195 fps=430 q=-0.0 size=N/A time=00:23:46.21 bitrate=N/A speed=17.9x    frame=34353 fps=430 q=-0.0 size=N/A time=00:23:52.80 bitrate=N/A speed=17.9x    frame=34555 fps=429 q=-0.0 size=N/A time=00:24:01.23 bitrate=N/A speed=17.9x    [Parsed_psnr_10 @ 00000223b703e600] PSNR y:46.957721 u:49.312121 v:49.731416 average:47.655441 min:34.868351 max:inf
[out#0/null @ 00000223abba2f00] video:14858KiB audio:270440KiB subtitle:0KiB other streams:0KiB global headers:0KiB muxing overhead: unknown
frame=34579 fps=429 q=-0.0 Lsize=N/A time=00:24:02.23 bitrate=N/A speed=17.9x    
